<svg xmlns="http://www.w3.org/2000/svg" version="1.0" width="48.000000pt" height="46.000000pt" viewBox="-3 -3 54 52" preserveAspectRatio="xMidYMid meet"><g id="deeditor_bgCarrier" stroke-width="0">
  <rect id="dee_c_e" x="-3" y="-3" width="54" height="52" rx="38.4" fill="#000000" strokewidth="0"/>
</g>

<g transform="translate(0.000000,46.000000) scale(0.100000,-0.100000)" fill="#8943ff" stroke="none">
<path d="M213 421 c-26 -22 -32 -81 -9 -81 26 0 46 12 46 28 0 12 -3 13 -12 4 -7 -7 -16 -12 -20 -12 -15 0 -8 27 10 44 18 15 20 15 36 -3 25 -27 14 -51 -44 -95 -46 -35 -50 -41 -50 -81 0 -24 -5 -47 -11 -51 -23 -14 17 -24 94 -24 72 0 98 -10 62 -24 -23 -8 -165 5 -165 16 0 5 -7 2 -16 -6 -8 -9 -25 -16 -37 -17 -12 0 -38 -6 -57 -14 l-35 -12 40 -7 c22 -3 67 -15 100 -26 68 -23 107 -25 137 -9 11 6 60 19 107 28 l86 17 -62 19 c-41 12 -65 25 -69 37 -3 10 -9 16 -13 13 -5 -2 -6 7 -3 20 2 14 -3 36 -11 49 -13 19 -14 32 -7 57 17 57 12 91 -17 121 -31 33 -49 35 -80 9z" fill="#8943ff"/>
</g>
</svg>