<?xml version="1.0" encoding="UTF-8"?>
<svg xmlns="http://www.w3.org/2000/svg" xmlns:xlink="http://www.w3.org/1999/xlink" width="40px" height="39px" viewBox="0 0 40 39" version="1.1">
<g id="surface1">
<path style=" stroke:none;fill-rule:evenodd;fill:rgb(93.725491%,89.019608%,22.352941%);fill-opacity:1;" d="M 20.84375 2.804688 C 20.84375 2.953125 21.171875 3.199219 21.578125 3.34375 C 23.539062 4.054688 25.574219 7.117188 25.800781 9.703125 C 25.867188 10.453125 25.96875 11.296875 26.027344 11.574219 C 26.226562 12.550781 26.746094 11.578125 26.878906 9.972656 C 27.105469 7.28125 25.761719 4.539062 23.570312 3.214844 C 22.378906 2.492188 20.84375 2.261719 20.84375 2.804688 M 13.023438 30.496094 C 12.839844 30.71875 12.738281 31.386719 12.738281 32.34375 C 12.738281 33.621094 12.84375 34.058594 13.445312 35.289062 C 14.621094 37.679688 16.523438 39.195312 18.355469 39.207031 C 19.601562 39.214844 19.488281 38.84375 18.027344 38.15625 C 16.574219 37.46875 15.445312 36.382812 14.746094 35.011719 C 14.21875 33.980469 13.683594 31.988281 13.683594 31.0625 C 13.683594 30.25 13.417969 30.019531 13.023438 30.496094 M 21.949219 37.667969 C 22.148438 37.722656 22.480469 37.722656 22.683594 37.667969 C 22.886719 37.617188 22.722656 37.574219 22.316406 37.574219 C 21.910156 37.574219 21.746094 37.617188 21.949219 37.667969 "/>
<path style=" stroke:none;fill-rule:evenodd;fill:rgb(98.823529%,98.823529%,98.823529%);fill-opacity:1;" d="M 14.949219 1.082031 C 9.921875 1.421875 8.554688 1.9375 6.40625 4.292969 C 3.386719 7.609375 1.054688 13.796875 1.054688 18.507812 L 1.050781 19.832031 L 3 19.695312 C 4.070312 19.621094 5.136719 19.53125 5.367188 19.492188 C 5.601562 19.457031 6.601562 19.417969 7.59375 19.410156 L 9.398438 19.394531 L 9.660156 17.132812 C 10.398438 10.769531 12.464844 5.902344 15.632812 3.046875 C 16.230469 2.511719 17.042969 1.914062 17.441406 1.71875 C 18.164062 1.371094 18.371094 0.96875 17.851562 0.925781 C 17.703125 0.914062 16.394531 0.984375 14.949219 1.082031 M 16.257812 5.71875 C 15.371094 6.160156 13.894531 7.652344 13.894531 8.109375 C 13.894531 8.238281 14.09375 8.902344 14.332031 9.589844 C 15.042969 11.613281 15.226562 14.242188 14.941406 18.273438 C 14.476562 24.863281 14.441406 28.691406 14.839844 30.515625 C 15.523438 33.640625 16.839844 35.585938 19.21875 36.980469 C 20.167969 37.539062 20.285156 37.554688 23.292969 37.535156 C 26.179688 37.519531 27.359375 37.441406 28.601562 37.183594 C 29.058594 37.089844 29.074219 37.054688 28.769531 36.714844 C 28.585938 36.515625 28.078125 36.222656 27.640625 36.070312 C 26.507812 35.675781 24.96875 34.09375 24.335938 32.683594 C 23.082031 29.882812 22.941406 27.605469 23.5 19.089844 C 23.851562 13.757812 23.773438 11.578125 23.160156 9.449219 C 22.828125 8.296875 21.699219 6.738281 20.679688 6.023438 C 19.472656 5.179688 17.597656 5.050781 16.257812 5.71875 M 31.386719 15.601562 C 30.066406 16.0625 28.761719 16.585938 28.488281 16.765625 L 27.992188 17.089844 L 28.542969 18.074219 C 30.15625 20.964844 30.292969 25.589844 28.859375 28.742188 C 28.132812 30.332031 28.335938 30.894531 30.035156 32.066406 C 31.882812 33.339844 33.277344 33.253906 34.886719 31.769531 C 37.644531 29.222656 38.945312 25.050781 38.246094 21.007812 C 37.863281 18.789062 37.167969 17.273438 35.867188 15.824219 C 35.167969 15.046875 34.757812 14.757812 34.347656 14.757812 C 34.042969 14.761719 32.707031 15.140625 31.386719 15.601562 "/>
</g>
</svg>
